<?xml version="1.0" standalone="no"?>
<!DOCTYPE svg PUBLIC "-//W3C//DTD SVG 20010904//EN"
 "http://www.w3.org/TR/2001/REC-SVG-20010904/DTD/svg10.dtd">
<svg version="1.0" xmlns="http://www.w3.org/2000/svg"
 width="256.000000pt" height="256.000000pt" viewBox="0 0 256.000000 256.000000"
 preserveAspectRatio="xMidYMid meet">

<g transform="translate(0.000000,256.000000) scale(0.100000,-0.100000)"
fill="#000000" stroke="none">
<path d="M997 2180 c-12 -18 -10 -37 20 -161 18 -78 36 -146 39 -150 8 -14 50
-10 63 5 9 11 4 45 -20 147 -17 74 -37 144 -45 157 -18 27 -38 28 -57 2z"/>
<path d="M1438 2163 c-8 -10 -31 -78 -51 -151 -29 -102 -35 -137 -27 -152 12
-23 42 -26 59 -6 9 10 91 276 91 293 0 1 -7 9 -16 17 -20 21 -37 20 -56 -1z"/>
<path d="M606 1984 c-9 -8 -16 -21 -16 -28 0 -7 45 -62 101 -122 80 -87 106
-109 127 -109 22 0 28 5 30 28 3 23 -13 45 -99 137 -56 61 -108 110 -115 110
-7 0 -20 -7 -28 -16z"/>
<path d="M1717 1842 c-59 -59 -107 -114 -107 -123 0 -20 20 -39 40 -39 23 0
230 206 230 228 0 22 -19 42 -40 42 -8 0 -64 -48 -123 -108z"/>
<path d="M1395 1605 c-66 -18 -259 -70 -430 -115 -171 -46 -316 -87 -322 -93
-28 -21 -12 -53 64 -129 l77 -78 -212 -213 c-116 -117 -212 -220 -212 -228 0
-19 301 -319 320 -319 8 0 110 95 227 212 l212 212 84 -82 c47 -45 89 -82 94
-82 30 0 48 52 157 460 64 239 116 442 116 451 0 20 -20 39 -39 38 -9 0 -70
-15 -136 -34z m71 -92 c-11 -44 -177 -666 -182 -682 -3 -10 -26 6 -72 52 -37
37 -76 67 -87 67 -12 0 -100 -80 -232 -212 l-213 -213 -110 110 -110 110 210
210 c160 160 210 216 210 235 0 17 -20 45 -66 91 l-65 66 288 77 c158 43 317
86 353 96 85 24 83 24 76 -7z"/>
<path d="M1887 1571 c-70 -21 -132 -42 -138 -48 -6 -6 -9 -21 -7 -34 5 -36 36
-34 188 8 131 37 135 39 138 67 4 30 -11 46 -38 45 -8 -1 -72 -18 -143 -38z"/>
<path d="M1762 1218 c-16 -16 -15 -43 1 -55 6 -6 76 -25 154 -43 117 -27 145
-31 158 -20 18 15 20 44 3 58 -13 10 -261 72 -289 72 -8 0 -20 -5 -27 -12z"/>
<path d="M1632 948 c-28 -28 -11 -54 95 -151 85 -77 113 -97 133 -95 18 2 26
10 28 29 3 21 -15 42 -108 127 -60 56 -116 102 -123 102 -7 0 -18 -5 -25 -12z"/>
</g>
</svg>
